<?xml version='1.0' encoding='UTF-8' standalone='no'?>
<svg xmlns:xlink="http://www.w3.org/1999/xlink" viewBox="0 0 576 432" xmlns="http://www.w3.org/2000/svg" height="432pt" width="576pt">
 <title>gl2ps_renderer figure</title>
 <desc>
Creator: GL2PS 1.4.0, (C) 1999-2017 C. Geuzaine
For: Octave
CreationDate: Wed Jan 20 21:50:23 2021
</desc>
 <defs/>
 <polygon fill="#ffffff" points="0,0 576,0 576,432 0,432"/>
 <g>
  <polygon fill="#ffffff" shape-rendering="crispEdges" points="0,432 576,432 576,0 0,0"/>
  <clipPath id="cp00576432">
   <polygon points="0,432 576,432 576,0 0,0"/>
  </clipPath>
  <g clip-path="url(#cp00576432)">
   <polygon fill="#ffffff" shape-rendering="crispEdges" points="74.8799,384.48 521.28,384.48 521.28,32.3999 74.8799,32.3999"/>
   <polyline fill="none" points="74.8799,384.48 74.8799,380.015" stroke="#262626" stroke-linejoin="miter" stroke-width="0.5" stroke-linecap="butt"/>
   <polyline fill="none" points="74.8799,32.3999 74.8799,36.8652" stroke="#262626" stroke-linejoin="miter" stroke-width="0.5" stroke-linecap="butt"/>
   <polyline fill="none" points="164.16,384.48 164.16,380.015" stroke="#262626" stroke-linejoin="miter" stroke-width="0.5" stroke-linecap="butt"/>
   <polyline fill="none" points="164.16,32.3999 164.16,36.8652" stroke="#262626" stroke-linejoin="miter" stroke-width="0.5" stroke-linecap="butt"/>
   <polyline fill="none" points="253.44,384.48 253.44,380.015" stroke="#262626" stroke-linejoin="miter" stroke-width="0.5" stroke-linecap="butt"/>
   <polyline fill="none" points="253.44,32.3999 253.44,36.8652" stroke="#262626" stroke-linejoin="miter" stroke-width="0.5" stroke-linecap="butt"/>
   <polyline fill="none" points="342.72,384.48 342.72,380.015" stroke="#262626" stroke-linejoin="miter" stroke-width="0.5" stroke-linecap="butt"/>
   <polyline fill="none" points="342.72,32.3999 342.72,36.8652" stroke="#262626" stroke-linejoin="miter" stroke-width="0.5" stroke-linecap="butt"/>
   <polyline fill="none" points="432,384.48 432,380.015" stroke="#262626" stroke-linejoin="miter" stroke-width="0.5" stroke-linecap="butt"/>
   <polyline fill="none" points="432,32.3999 432,36.8652" stroke="#262626" stroke-linejoin="miter" stroke-width="0.5" stroke-linecap="butt"/>
   <polyline fill="none" points="521.28,384.48 521.28,380.015" stroke="#262626" stroke-linejoin="miter" stroke-width="0.5" stroke-linecap="butt"/>
   <polyline fill="none" points="521.28,32.3999 521.28,36.8652" stroke="#262626" stroke-linejoin="miter" stroke-width="0.5" stroke-linecap="butt"/>
   <text font-weight="normal" font-size="10" transform="translate(71.88,399.982) rotate(-0,3,-8)" font-family="FreeSans" xml:space="preserve" font-style="normal">
    <tspan fill="rgb(38,38,38)" y="-0" x="0 ">0</tspan>
   </text>
   <text font-weight="normal" font-size="10" transform="translate(152.16,399.982) rotate(-0,12,-8)" font-family="FreeSans" xml:space="preserve" font-style="normal">
    <tspan fill="rgb(38,38,38)" y="-0" x="0 6 12 18 ">1000</tspan>
   </text>
   <text font-weight="normal" font-size="10" transform="translate(241.44,399.982) rotate(-0,12,-8)" font-family="FreeSans" xml:space="preserve" font-style="normal">
    <tspan fill="rgb(38,38,38)" y="-0" x="0 6 12 18 ">2000</tspan>
   </text>
   <text font-weight="normal" font-size="10" transform="translate(330.72,399.982) rotate(-0,12,-8)" font-family="FreeSans" xml:space="preserve" font-style="normal">
    <tspan fill="rgb(38,38,38)" y="-0" x="0 6 12 18 ">3000</tspan>
   </text>
   <text font-weight="normal" font-size="10" transform="translate(420,399.982) rotate(-0,12,-8)" font-family="FreeSans" xml:space="preserve" font-style="normal">
    <tspan fill="rgb(38,38,38)" y="-0" x="0 6 12 18 ">4000</tspan>
   </text>
   <text font-weight="normal" font-size="10" transform="translate(509.28,399.982) rotate(-0,12,-8)" font-family="FreeSans" xml:space="preserve" font-style="normal">
    <tspan fill="rgb(38,38,38)" y="-0" x="0 6 12 18 ">5000</tspan>
   </text>
   <polyline fill="none" points="74.8799,384.48 79.3481,384.48" stroke="#262626" stroke-linejoin="miter" stroke-width="0.5" stroke-linecap="butt"/>
   <polyline fill="none" points="521.28,384.48 516.812,384.48" stroke="#262626" stroke-linejoin="miter" stroke-width="0.5" stroke-linecap="butt"/>
   <polyline fill="none" points="74.8799,334.183 79.3481,334.183" stroke="#262626" stroke-linejoin="miter" stroke-width="0.5" stroke-linecap="butt"/>
   <polyline fill="none" points="521.28,334.183 516.812,334.183" stroke="#262626" stroke-linejoin="miter" stroke-width="0.5" stroke-linecap="butt"/>
   <polyline fill="none" points="74.8799,283.886 79.3481,283.886" stroke="#262626" stroke-linejoin="miter" stroke-width="0.5" stroke-linecap="butt"/>
   <polyline fill="none" points="521.28,283.886 516.812,283.886" stroke="#262626" stroke-linejoin="miter" stroke-width="0.5" stroke-linecap="butt"/>
   <polyline fill="none" points="74.8799,233.588 79.3481,233.588" stroke="#262626" stroke-linejoin="miter" stroke-width="0.5" stroke-linecap="butt"/>
   <polyline fill="none" points="521.28,233.588 516.812,233.588" stroke="#262626" stroke-linejoin="miter" stroke-width="0.5" stroke-linecap="butt"/>
   <polyline fill="none" points="74.8799,183.292 79.3481,183.292" stroke="#262626" stroke-linejoin="miter" stroke-width="0.5" stroke-linecap="butt"/>
   <polyline fill="none" points="521.28,183.292 516.812,183.292" stroke="#262626" stroke-linejoin="miter" stroke-width="0.5" stroke-linecap="butt"/>
   <polyline fill="none" points="74.8799,132.994 79.3481,132.994" stroke="#262626" stroke-linejoin="miter" stroke-width="0.5" stroke-linecap="butt"/>
   <polyline fill="none" points="521.28,132.994 516.812,132.994" stroke="#262626" stroke-linejoin="miter" stroke-width="0.5" stroke-linecap="butt"/>
   <polyline fill="none" points="74.8799,82.6973 79.3481,82.6973" stroke="#262626" stroke-linejoin="miter" stroke-width="0.5" stroke-linecap="butt"/>
   <polyline fill="none" points="521.28,82.6973 516.812,82.6973" stroke="#262626" stroke-linejoin="miter" stroke-width="0.5" stroke-linecap="butt"/>
   <polyline fill="none" points="74.8799,32.3999 79.3481,32.3999" stroke="#262626" stroke-linejoin="miter" stroke-width="0.5" stroke-linecap="butt"/>
   <polyline fill="none" points="521.28,32.3999 516.812,32.3999" stroke="#262626" stroke-linejoin="miter" stroke-width="0.5" stroke-linecap="butt"/>
   <text font-weight="normal" font-size="10" transform="translate(63.8755,388.48) rotate(-0,6,-4)" font-family="FreeSans" xml:space="preserve" font-style="normal">
    <tspan fill="rgb(38,38,38)" y="-0" x="0 ">0</tspan>
   </text>
   <text font-weight="normal" font-size="10" transform="translate(63.8755,338.183) rotate(-0,6,-4)" font-family="FreeSans" xml:space="preserve" font-style="normal">
    <tspan fill="rgb(38,38,38)" y="-0" x="0 ">1</tspan>
   </text>
   <text font-weight="normal" font-size="10" transform="translate(63.8755,287.886) rotate(-0,6,-4)" font-family="FreeSans" xml:space="preserve" font-style="normal">
    <tspan fill="rgb(38,38,38)" y="-0" x="0 ">2</tspan>
   </text>
   <text font-weight="normal" font-size="10" transform="translate(63.8755,237.589) rotate(-0,6,-4)" font-family="FreeSans" xml:space="preserve" font-style="normal">
    <tspan fill="rgb(38,38,38)" y="-0" x="0 ">3</tspan>
   </text>
   <text font-weight="normal" font-size="10" transform="translate(63.8755,187.291) rotate(-0,6,-4)" font-family="FreeSans" xml:space="preserve" font-style="normal">
    <tspan fill="rgb(38,38,38)" y="-0" x="0 ">4</tspan>
   </text>
   <text font-weight="normal" font-size="10" transform="translate(63.8755,136.994) rotate(-0,6,-4)" font-family="FreeSans" xml:space="preserve" font-style="normal">
    <tspan fill="rgb(38,38,38)" y="-0" x="0 ">5</tspan>
   </text>
   <text font-weight="normal" font-size="10" transform="translate(63.8755,86.6971) rotate(-0,6,-4)" font-family="FreeSans" xml:space="preserve" font-style="normal">
    <tspan fill="rgb(38,38,38)" y="-0" x="0 ">6</tspan>
   </text>
   <text font-weight="normal" font-size="10" transform="translate(63.8755,36.4) rotate(-0,6,-4)" font-family="FreeSans" xml:space="preserve" font-style="normal">
    <tspan fill="rgb(38,38,38)" y="-0" x="0 ">7</tspan>
   </text>
   <polyline fill="none" points="74.8799,384.48 521.28,384.48" stroke="#262626" stroke-linejoin="miter" stroke-width="0.5" stroke-dasharray="16,0" stroke-linecap="square"/>
   <polyline fill="none" points="74.8799,32.3999 521.28,32.3999" stroke="#262626" stroke-linejoin="miter" stroke-width="0.5" stroke-dasharray="16,0" stroke-linecap="square"/>
   <polyline fill="none" points="74.8799,384.48 74.8799,32.3999" stroke="#262626" stroke-linejoin="miter" stroke-width="0.5" stroke-dasharray="16,0" stroke-linecap="square"/>
   <polyline fill="none" points="521.28,384.48 521.28,32.3999" stroke="#262626" stroke-linejoin="miter" stroke-width="0.5" stroke-dasharray="16,0" stroke-linecap="square"/>
   <polyline fill="none" points="74.8799,384.48 74.8799,77.7178 75.7729,74.3477 76.6655,75.1021 77.5586,75.8569 78.4512,76.3599 79.3438,77.7178 80.2368,78.3213 81.1294,78.623 82.0225,78.6733 82.915,80.3833 83.8081,80.6348 84.7007,81.1377 85.5938,81.8926 86.4863,124.997 87.3794,83.3511 88.272,84.0049 89.165,84.9102 90.0576,85.3628 90.9502,85.7651 91.8433,87.123 92.7358,96.8809 93.6289,87.5259 94.5215,89.1855 95.4146,89.6382 96.3071,90.0908 97.2002,90.9458 98.0928,91.7002 98.9854,92.7061 99.8784,93.4609 100.771,94.2656 101.664,94.7686 102.557,95.1206 103.45,96.3779 104.342,96.8306 105.235,96.9814 106.128,97.1826 107.021,98.792 107.914,99.2451 108.807,99.7983 109.699,100.603 110.592,101.458 111.485,102.212 112.377,103.067 113.271,103.721 114.163,104.174 115.056,105.583 115.949,106.236 116.842,106.488 117.734,106.639 118.627,108.198 119.52,108.55 120.413,234.947 121.306,109.757 122.198,110.511 123.091,111.518 123.984,155.98 124.877,113.026 125.77,113.529 126.663,113.932 127.555,115.29 128.448,115.44 129.341,115.642 130.233,117.251 131.126,117.704 132.019,118.207 132.912,119.112 133.805,294.348 134.698,120.822 135.59,121.627 136.483,122.482 137.376,122.885 138.269,123.337 139.162,124.846 140.054,125.249 140.947,125.45 141.84,125.802 142.733,127.21 143.625,127.713 144.519,128.216 145.411,129.021 146.304,129.826 147.197,130.731 148.09,131.536 148.982,132.29 149.875,132.793 150.768,134.202 151.661,134.855 152.554,135.057 153.446,135.157 154.339,136.968 155.232,137.37 156.125,137.772 157.018,138.627 157.91,139.482 158.803,140.438 159.696,141.092 160.589,141.998 161.481,142.45 162.375,142.903 163.267,144.21 164.16,144.311 165.053,144.562 165.946,146.273 166.838,146.675 167.731,147.229 168.624,148.033 169.517,148.888 170.41,149.894 171.302,150.749 172.195,151.755 173.088,152.208 173.981,152.661 174.874,154.169 175.767,154.572 176.659,154.773 177.552,155.175 178.445,156.483 179.337,156.936 180.23,157.589 181.123,158.294 182.016,159.149 182.909,159.954 183.802,160.809 184.694,161.563 185.587,162.016 186.48,163.424 187.373,164.229 188.266,164.531 189.158,164.631 190.051,166.392 190.944,166.844 191.837,167.297 192.729,168.152 193.623,168.957 194.515,169.762 195.408,170.516 196.301,171.321 197.193,171.773 198.086,172.125 198.979,173.634 199.872,173.785 200.765,173.986 201.658,175.546 202.55,176.049 203.443,176.552 204.336,236.958 205.229,178.463 206.122,179.418 207.014,180.273 207.907,181.179 208.8,181.632 209.693,182.034 210.585,183.493 211.479,183.845 212.371,184.046 213.264,184.599 214.157,185.806 215.05,186.259 215.942,186.862 216.835,187.617 217.728,188.372 218.621,189.227 219.514,190.082 220.406,190.836 221.299,191.339 222.192,192.747 223.085,193.603 223.978,193.753 224.871,193.904 225.763,195.665 226.656,196.017 227.549,196.469 228.441,197.224 229.334,198.028 230.227,198.883 231.12,199.638 232.013,200.443 232.906,200.845 233.798,201.248 234.691,202.605 235.584,202.706 236.477,202.907 237.37,204.617 238.262,205.171 239.155,205.674 240.048,206.479 240.941,207.434 241.833,208.39 242.727,209.194 243.619,209.999 244.512,210.502 245.405,210.854 246.297,212.263 247.19,212.715 248.083,212.866 248.976,213.52 249.869,214.476 250.762,214.928 251.654,215.532 252.547,216.186 253.44,217.091 254.333,217.997 255.226,218.852 256.118,219.656 257.011,220.109 257.904,221.417 258.797,222.221 259.689,222.372 260.583,222.473 261.475,224.133 262.368,224.535 263.261,224.887 264.154,225.742 265.046,226.446 265.939,227.301 266.832,306.218 267.725,228.76 268.618,229.213 269.51,229.666 270.403,231.124 271.296,231.225 272.189,231.476 273.082,233.085 273.975,233.588 274.867,234.091 275.76,234.796 276.653,235.701 277.545,236.606 278.438,237.411 279.331,238.266 280.224,238.769 281.117,239.121 282.01,240.53 282.902,240.781 283.795,240.932 284.688,241.636 285.581,242.692 286.474,243.095 287.366,243.799 288.259,244.453 289.152,245.308 290.045,246.213 290.938,247.068 291.831,247.772 292.723,248.275 293.616,249.332 294.509,250.187 295.401,250.438 296.294,250.589 297.187,252.199 298.08,252.551 298.973,252.953 299.866,253.708 300.758,254.412 301.651,255.317 302.544,256.071 303.437,256.926 304.33,257.429 305.222,257.832 306.115,259.19 307.008,259.391 307.901,259.643 308.793,261.151 309.687,261.604 310.579,262.107 311.472,262.962 312.365,263.868 313.258,264.823 314.15,265.527 315.043,266.332 315.936,266.835 316.829,267.137 317.722,228.911 318.614,269.048 319.507,269.199 320.4,269.954 321.293,270.959 322.186,271.412 323.079,272.066 323.971,272.82 324.864,273.625 325.757,274.43 326.649,275.285 327.542,275.989 328.435,276.442 329.328,277.75 330.221,278.554 331.114,278.806 332.006,278.906 332.899,280.516 333.792,280.968 334.685,281.421 335.578,282.276 336.47,283.081 337.363,283.986 338.256,284.64 339.149,285.545 340.042,286.048 340.935,286.501 341.827,287.859 342.72,288.01 343.613,288.161 344.505,289.771 345.398,290.273 346.291,290.827 347.184,291.581 348.077,292.537 348.97,293.442 349.862,294.247 350.755,295.203 351.648,295.655 352.541,296.108 353.434,297.516 354.326,298.069 355.219,298.22 356.112,299.076 357.005,299.981 357.897,300.484 358.791,301.037 359.683,301.792 360.576,302.697 361.469,303.501 362.362,304.356 363.254,305.061 364.147,305.614 365.04,306.771 365.933,307.576 366.826,307.877 367.718,307.978 368.611,309.839 369.504,310.241 370.397,310.745 371.29,311.65 372.182,312.404 373.075,313.36 373.968,314.064 374.861,314.869 375.753,315.321 376.646,315.774 377.539,317.233 378.432,317.333 379.325,317.535 380.218,319.194 381.11,319.597 382.003,320.049 382.896,320.955 383.789,321.86 384.682,322.967 385.574,323.771 386.467,324.727 387.36,325.18 388.253,325.632 389.146,327.091 390.039,327.443 390.931,327.644 391.824,328.349 392.717,329.455 393.609,329.857 394.502,330.461 395.395,331.215 396.288,332.07 397.181,332.875 398.074,333.73 398.966,334.485 399.859,334.938 400.752,335.994 401.645,338.709 402.538,337.452 403.43,337.553 404.323,339.363 405.216,339.766 406.109,340.219 407.001,341.023 407.895,341.728 408.787,342.683 409.68,343.438 410.573,344.242 411.465,344.645 412.358,345.097 413.251,346.456 414.144,346.556 415.037,346.757 415.93,348.367 416.822,348.87 417.715,349.423 418.608,350.278 419.501,351.183 420.394,352.29 421.286,353.044 422.179,353.95 423.072,354.352 423.965,354.855 424.857,356.163 425.75,356.615 426.643,356.816 427.536,357.873 428.429,358.477 429.322,358.929 430.214,359.432 431.107,360.187 432,360.991 432.893,361.846 433.786,362.802 434.678,363.506 435.571,364.06 436.464,364.613 437.357,366.172 438.25,366.423 439.143,366.474 440.035,368.133 440.928,368.485 441.821,368.988 442.713,369.793 443.606,370.548 444.499,371.403 445.392,372.107 446.285,372.811 447.178,378.293 448.07,373.716 448.963,374.974 449.856,375.175 450.749,375.427 451.642,377.086 452.534,377.589 453.427,378.042 454.32,378.897 455.213,379.752 456.105,380.657 456.999,381.462 457.891,382.368 458.784,382.77 459.677,383.122 460.569,68.5132 461.462,68.9155 462.355,69.0664 463.248,70.123 464.141,70.6763 465.034,71.1289 465.926,71.6821 466.819,72.4868 467.712,73.3418 468.605,74.1465 469.498,75.0518 470.39,75.7563 471.283,76.3096 472.176,76.7622 473.069,78.271 473.961,78.4722 474.854,78.5728 475.747,80.333 476.64,80.6348 477.533,81.0371 478.426,81.8926 479.318,82.4961 480.211,83.3511 481.104,84.0049 481.997,84.9102 482.89,85.3125 483.782,85.7651 484.675,105.985 485.568,87.2744 486.461,87.5259 487.354,89.1855 488.247,89.5879 489.139,90.0405 490.032,90.7949 490.925,91.6499 491.817,92.7061 492.71,93.4609 493.603,94.2656 494.496,94.7686 495.389,95.1206 496.282,96.4282 497.174,96.73 498.067,96.2271 498.96,98.1382 499.853,129.021 500.746,99.1948 501.638,99.748 502.531,100.452 503.424,101.357 504.317,102.263 505.209,103.067 506.103,103.721 506.995,104.174 507.888,104.778 508.781,106.337 509.673,106.488 510.566,106.639 511.459,108.198 512.352,108.55 513.245,109.002 514.138,109.807 515.03,110.562 515.923,111.518 516.816,112.272 517.709,113.026 518.602,113.479 519.494,113.932 520.387,115.29" stroke="#0071bc" stroke-linejoin="round" stroke-width="0.5" stroke-linecap="butt"/>
   <polyline fill="none" points="74.8799,384.48 74.8799,169.258 75.7729,132.34 76.6655,140.64 77.5586,148.687 78.4512,154.22 79.3438,169.459 80.2368,176.049 81.1294,179.016 82.0225,180.072 82.915,198.783 83.8081,201.549 84.7007,207.032 85.5938,215.331 86.4863,373.666 87.3794,231.476 88.272,238.668 89.165,248.225 90.0576,253.506 90.9502,257.983 91.8433,273.072 92.7358,380.456 93.6289,277.498 94.5215,295.555 95.4146,300.232 96.3071,305.514 97.2002,314.869 98.0928,323.118 98.9854,334.384 99.8784,342.432 100.771,351.384 101.664,356.666 102.557,360.689 103.45,374.923 104.342,379.601 105.235,381.312 106.128,383.625 107.021,85.0107 107.914,90.292 108.807,96.2773 109.699,104.979 110.592,114.736 111.485,122.784 112.377,132.139 113.271,139.533 114.163,144.412 115.056,159.702 115.949,167.146 116.842,170.114 117.734,171.371 118.627,188.774 119.52,192.596 120.413,319.094 121.306,205.976 122.198,214.274 123.091,225.29 123.984,82.2446 124.877,242.089 125.77,247.37 126.663,251.847 127.555,266.684 128.448,268.193 129.341,270.708 130.233,288.111 131.126,293.241 132.019,298.723 132.912,308.732 133.805,340.772 134.698,327.795 135.59,336.497 136.483,345.852 137.376,350.529 138.269,355.408 139.162,371.755 140.054,376.433 140.947,378.344 141.84,382.368 142.733,82.0435 143.625,87.123 144.519,93.0581 145.411,102.011 146.304,110.914 147.197,120.671 148.09,129.574 148.982,137.873 149.875,143.355 150.768,158.847 151.661,165.889 152.554,168.001 153.446,169.258 154.339,189.025 155.232,193.452 156.125,198.33 157.018,207.686 157.91,217.041 158.803,227.402 159.696,234.846 160.589,244.402 161.481,249.684 162.375,254.361 163.267,268.796 164.16,270.306 165.053,272.82 165.946,291.531 166.838,295.957 167.731,302.144 168.624,310.845 169.517,320.401 170.41,331.417 171.302,340.973 172.195,351.787 173.088,356.666 173.981,361.746 174.874,378.344 175.767,382.77 176.659,68.8652 177.552,73.7441 178.445,87.7773 179.337,92.6558 180.23,100.1 181.123,107.946 182.016,117.251 182.909,125.953 183.802,135.509 184.694,143.607 185.587,148.888 186.48,164.179 187.373,173.282 188.266,176.25 189.158,177.759 190.051,197.073 190.944,201.952 191.837,206.831 192.729,216.387 193.623,225.29 194.515,234.192 195.408,242.29 196.301,251.192 197.193,256.272 198.086,260.296 198.979,276.895 199.872,278.353 200.765,280.264 201.658,297.667 202.55,302.999 203.443,308.481 204.336,341.174 205.229,329.505 206.122,340.571 207.014,349.473 207.907,359.432 208.8,364.764 209.693,369.189 210.585,69.3184 211.479,73.1406 212.371,75.2529 213.264,81.3896 214.157,94.7686 215.05,99.4463 215.942,106.035 216.835,114.485 217.728,122.784 218.621,132.139 219.514,141.444 220.406,149.944 221.299,155.678 222.192,170.768 223.085,180.072 223.978,182.235 224.871,183.895 225.763,203.008 226.656,207.032 227.549,212.162 228.441,220.411 229.334,228.911 230.227,238.266 231.12,246.716 232.013,255.417 232.906,259.894 233.798,264.572 234.691,279.409 235.584,280.264 236.477,282.83 237.37,301.691 238.262,307.425 239.155,313.159 240.048,322.312 240.941,332.473 241.833,343.287 242.727,351.988 243.619,360.941 244.512,366.222 245.405,370.045 246.297,69.7207 247.19,74.3979 248.083,76.1084 248.976,83.502 249.869,93.9136 250.762,98.792 251.654,105.381 252.547,112.825 253.44,122.583 254.333,132.542 255.226,142.299 256.118,151 257.011,155.879 257.904,170.114 258.797,179.469 259.689,181.128 260.583,182.235 261.475,200.242 262.368,204.517 263.261,208.742 264.154,218.097 265.046,225.943 265.939,235.299 266.832,155.276 267.725,251.192 268.618,256.272 269.51,261.151 270.403,277.297 271.296,278.152 272.189,280.918 273.082,298.522 273.975,304.055 274.867,309.789 275.76,317.836 276.653,327.594 277.545,337.553 278.438,346.506 279.331,356.062 280.224,361.142 281.117,364.965 282.01,380.456 282.902,383.223 283.795,69.0664 284.688,76.9634 285.581,88.1797 286.474,93.0581 287.366,100.704 288.259,107.946 289.152,117.251 290.045,127.009 290.938,136.565 291.831,144.412 292.723,149.944 293.616,161.613 294.509,170.969 295.401,173.735 296.294,175.445 297.187,193.25 298.08,197.073 298.973,201.549 299.866,209.798 300.758,217.443 301.651,227.653 302.544,235.902 303.437,245.056 304.33,250.79 305.222,255.015 306.115,270.104 307.008,272.217 307.901,274.731 308.793,291.531 309.687,296.611 310.579,301.942 311.472,311.248 312.365,321.458 313.258,332.07 314.15,339.464 315.043,348.618 315.936,354.352 316.829,357.521 317.722,252.903 318.614,378.545 319.507,380.255 320.4,72.4868 321.293,83.3008 322.186,88.1797 323.079,95.8247 323.971,104.124 324.864,113.026 325.757,121.728 326.649,130.832 327.542,138.728 328.435,144.009 329.328,158.042 330.221,167.146 331.114,169.711 332.006,170.768 332.899,188.774 333.792,193.653 334.685,198.33 335.578,207.887 336.47,216.79 337.363,226.798 338.256,233.79 339.149,243.749 340.042,249.482 340.935,254.613 341.827,269.249 342.72,270.909 343.613,272.619 344.505,290.223 345.398,295.957 346.291,301.942 347.184,310.644 348.077,320.804 348.97,330.562 349.862,339.715 350.755,350.077 351.648,355.408 352.541,360.287 353.434,375.578 354.326,381.714 355.219,383.223 356.112,76.9634 357.005,86.7207 357.897,92.2031 358.791,98.1885 359.683,106.89 360.576,116.396 361.469,125.349 362.362,135.107 363.254,142.752 364.147,148.486 365.04,161.211 365.933,170.566 366.826,173.735 367.718,174.791 368.611,195.363 369.504,199.638 370.397,204.919 371.29,214.878 372.182,223.58 373.075,234.192 373.968,241.636 374.861,250.79 375.753,255.669 376.646,260.548 377.539,276.643 378.432,277.498 379.325,280.063 380.218,298.321 381.11,302.546 382.003,307.626 382.896,317.434 383.789,327.393 384.682,339.715 385.574,348.618 386.467,359.03 387.36,364.11 388.253,368.988 389.146,68.8652 390.039,73.1406 390.931,75.2529 391.824,83.0996 392.717,94.7686 393.609,99.6475 394.502,106.035 395.395,114.485 396.288,123.639 397.181,132.743 398.074,142.098 398.966,150.146 399.859,155.477 400.752,166.945 401.645,196.872 402.538,183.04 403.43,183.895 404.323,204.064 405.216,208.339 406.109,213.621 407.001,222.523 407.895,230.168 408.787,240.379 409.68,248.627 410.573,257.983 411.465,262.459 412.358,267.338 413.251,281.975 414.144,283.232 415.037,285.344 415.93,302.999 416.822,308.934 417.715,314.667 418.608,324.224 419.501,334.384 420.394,346.053 421.286,354.553 422.179,364.512 423.072,368.787 423.965,374.27 424.857,73.1406 425.75,77.7681 426.643,79.9307 427.536,91.8008 428.429,98.5908 429.322,103.269 430.214,109.002 431.107,117.05 432,126.204 432.893,135.509 433.786,146.122 434.678,153.566 435.571,159.702 436.464,165.637 437.357,183.04 438.25,185.605 439.143,186.259 440.035,204.718 440.928,208.742 441.821,214.073 442.713,222.976 443.606,231.225 444.499,240.379 445.392,248.426 446.285,256.071 447.178,316.126 448.07,266.03 448.963,280.063 449.856,282.176 450.749,284.741 451.642,302.999 452.534,308.934 453.427,313.812 454.32,322.917 455.213,332.473 456.105,342.432 456.999,351.183 457.891,361.142 458.784,365.82 459.677,369.643 460.569,384.279 461.462,72.2856 462.355,73.9956 463.248,85.8657 464.141,91.5996 465.034,96.6797 465.926,103.067 466.819,111.769 467.712,121.325 468.605,130.228 469.498,140.187 470.39,147.832 471.283,153.566 472.176,159.099 473.069,175.193 473.961,177.759 474.854,178.614 475.747,197.928 476.64,201.549 477.533,205.774 478.426,215.331 479.318,221.668 480.211,231.225 481.104,238.668 481.997,248.225 482.89,252.903 483.782,257.983 484.675,164.179 485.568,274.731 486.461,277.297 487.354,295.354 488.247,299.78 489.139,305.111 490.032,313.36 490.925,322.514 491.817,334.183 492.71,342.683 493.603,351.585 494.496,356.666 495.389,360.689 496.282,375.125 497.174,378.746 498.067,372.811 498.96,77.7681 499.853,101.559 500.746,89.8896 501.638,95.8247 502.531,103.671 503.424,113.68 504.317,123.237 505.209,132.34 506.103,139.332 506.995,144.663 507.888,150.799 508.781,168.001 509.673,169.913 510.566,171.371 511.459,188.774 512.352,192.596 513.245,197.727 514.138,206.428 515.03,214.677 515.923,225.29 516.816,233.588 517.709,242.089 518.602,246.716 519.494,251.595 520.387,266.885" stroke="#d85218" stroke-linejoin="round" stroke-width="0.5" stroke-linecap="butt"/>
   <polyline fill="none" points="74.8799,384.48 74.8799,69.2676 75.7729,77.1646 76.6655,85.061 77.5586,92.958 78.4512,100.854 79.3438,108.751 80.2368,116.648 81.1294,124.544 82.0225,132.441 82.915,140.338 83.8081,148.234 84.7007,156.131 85.5938,164.028 86.4863,171.975 87.3794,179.871 88.272,187.768 89.165,195.665 90.0576,203.561 90.9502,211.458 91.8433,219.354 92.7358,227.251 93.6289,235.148 94.5215,243.044 95.4146,250.941 96.3071,258.838 97.2002,266.785 98.0928,274.681 98.9854,282.578 99.8784,290.475 100.771,298.371 101.664,306.268 102.557,314.165 103.45,322.061 104.342,329.958 105.235,337.854 106.128,345.751 107.021,353.648 107.914,361.544 108.807,369.491 109.699,377.388 110.592,69.2676 111.485,77.1646 112.377,85.061 113.271,92.958 114.163,100.854 115.056,108.751 115.949,116.648 116.842,124.544 117.734,132.441 118.627,140.338 119.52,148.234 120.413,156.131 121.306,164.028 122.198,171.975 123.091,179.871 123.984,187.768 124.877,195.665 125.77,203.561 126.663,211.458 127.555,219.354 128.448,227.251 129.341,235.148 130.233,243.044 131.126,250.941 132.019,258.838 132.912,266.785 133.805,274.681 134.698,282.578 135.59,290.475 136.483,298.371 137.376,306.268 138.269,314.165 139.162,322.061 140.054,329.958 140.947,337.854 141.84,345.751 142.733,353.648 143.625,361.544 144.519,369.491 145.411,377.388 146.304,69.2676 147.197,77.1646 148.09,85.061 148.982,92.958 149.875,100.854 150.768,108.751 151.661,116.648 152.554,124.544 153.446,132.441 154.339,140.338 155.232,148.234 156.125,156.131 157.018,164.028 157.91,171.975 158.803,179.871 159.696,187.768 160.589,195.665 161.481,203.561 162.375,211.458 163.267,219.354 164.16,227.251 165.053,235.148 165.946,243.044 166.838,250.941 167.731,258.838 168.624,266.785 169.517,274.681 170.41,282.578 171.302,290.475 172.195,298.371 173.088,306.268 173.981,314.165 174.874,322.061 175.767,329.958 176.659,337.854 177.552,345.751 178.445,353.648 179.337,361.544 180.23,369.491 181.123,377.388 182.016,69.2676 182.909,77.1646 183.802,85.061 184.694,92.958 185.587,100.854 186.48,108.751 187.373,116.648 188.266,124.544 189.158,132.441 190.051,140.338 190.944,148.234 191.837,156.131 192.729,164.028 193.623,171.975 194.515,179.871 195.408,187.768 196.301,195.665 197.193,203.561 198.086,211.458 198.979,219.354 199.872,227.251 200.765,235.148 201.658,243.044 202.55,250.941 203.443,258.838 204.336,266.785 205.229,274.681 206.122,282.578 207.014,290.475 207.907,298.371 208.8,306.268 209.693,314.165 210.585,322.061 211.479,329.958 212.371,337.854 213.264,345.751 214.157,353.648 215.05,361.544 215.942,369.491 216.835,377.388 217.728,69.2676 218.621,77.1646 219.514,85.061 220.406,92.958 221.299,100.854 222.192,108.751 223.085,116.648 223.978,124.544 224.871,132.441 225.763,140.338 226.656,148.234 227.549,156.131 228.441,164.028 229.334,171.975 230.227,179.871 231.12,187.768 232.013,195.665 232.906,203.561 233.798,211.458 234.691,219.354 235.584,227.251 236.477,235.148 237.37,243.044 238.262,250.941 239.155,258.838 240.048,266.785 240.941,274.681 241.833,282.578 242.727,290.475 243.619,298.371 244.512,306.268 245.405,314.165 246.297,322.061 247.19,329.958 248.083,337.854 248.976,345.751 249.869,353.648 250.762,361.544 251.654,369.491 252.547,377.388 253.44,69.2676 254.333,77.1646 255.226,85.061 256.118,92.958 257.011,100.854 257.904,108.751 258.797,116.648 259.689,124.544 260.583,132.441 261.475,140.338 262.368,148.234 263.261,156.131 264.154,164.028 265.046,171.975 265.939,179.871 266.832,187.768 267.725,195.665 268.618,203.561 269.51,211.458 270.403,219.354 271.296,227.251 272.189,235.148 273.082,243.044 273.975,250.941 274.867,258.838 275.76,266.785 276.653,274.681 277.545,282.578 278.438,290.475 279.331,298.371 280.224,306.268 281.117,314.165 282.01,322.061 282.902,329.958 283.795,337.854 284.688,345.751 285.581,353.648 286.474,361.544 287.366,369.491 288.259,377.388 289.152,69.2676 290.045,77.1646 290.938,85.061 291.831,92.958 292.723,100.854 293.616,108.751 294.509,116.648 295.401,124.544 296.294,132.441 297.187,140.338 298.08,148.234 298.973,156.131 299.866,164.028 300.758,171.975 301.651,179.871 302.544,187.768 303.437,195.665 304.33,203.561 305.222,211.458 306.115,219.354 307.008,227.251 307.901,235.148 308.793,243.044 309.687,250.941 310.579,258.838 311.472,266.785 312.365,274.681 313.258,282.578 314.15,290.475 315.043,298.371 315.936,306.268 316.829,314.165 317.722,322.061 318.614,329.958 319.507,337.854 320.4,345.751 321.293,353.648 322.186,361.544 323.079,369.491 323.971,377.388 324.864,69.2676 325.757,77.1646 326.649,85.061 327.542,92.958 328.435,100.854 329.328,108.751 330.221,116.648 331.114,124.544 332.006,132.441 332.899,140.338 333.792,148.234 334.685,156.131 335.578,164.028 336.47,171.975 337.363,179.871 338.256,187.768 339.149,195.665 340.042,203.561 340.935,211.458 341.827,219.354 342.72,227.251 343.613,235.148 344.505,243.044 345.398,250.941 346.291,258.838 347.184,266.785 348.077,274.681 348.97,282.578 349.862,290.475 350.755,298.371 351.648,306.268 352.541,314.165 353.434,322.061 354.326,329.958 355.219,337.854 356.112,345.751 357.005,353.648 357.897,361.544 358.791,369.491 359.683,377.388 360.576,69.2676 361.469,77.1646 362.362,85.061 363.254,92.958 364.147,100.854 365.04,108.751 365.933,116.648 366.826,124.544 367.718,132.441 368.611,140.338 369.504,148.234 370.397,156.131 371.29,164.028 372.182,171.975 373.075,179.871 373.968,187.768 374.861,195.665 375.753,203.561 376.646,211.458 377.539,219.354 378.432,227.251 379.325,235.148 380.218,243.044 381.11,250.941 382.003,258.838 382.896,266.785 383.789,274.681 384.682,282.578 385.574,290.475 386.467,298.371 387.36,306.268 388.253,314.165 389.146,322.061 390.039,329.958 390.931,337.854 391.824,345.751 392.717,353.648 393.609,361.544 394.502,369.491 395.395,377.388 396.288,69.2676 397.181,77.1646 398.074,85.061 398.966,92.958 399.859,100.854 400.752,108.751 401.645,116.648 402.538,124.544 403.43,132.441 404.323,140.338 405.216,148.234 406.109,156.131 407.001,164.078 407.895,171.975 408.787,179.871 409.68,187.768 410.573,195.665 411.465,203.561 412.358,211.458 413.251,219.354 414.144,227.251 415.037,235.148 415.93,243.044 416.822,250.941 417.715,258.838 418.608,266.785 419.501,274.681 420.394,282.578 421.286,290.475 422.179,298.371 423.072,306.268 423.965,314.165 424.857,322.061 425.75,329.958 426.643,337.854 427.536,345.751 428.429,353.648 429.322,361.544 430.214,369.491 431.107,377.388 432,69.2676 432.893,77.1646 433.786,85.061 434.678,92.958 435.571,100.854 436.464,108.751 437.357,116.648 438.25,124.544 439.143,132.441 440.035,140.338 440.928,148.234 441.821,156.131 442.713,164.078 443.606,171.975 444.499,179.871 445.392,187.768 446.285,195.665 447.178,203.561 448.07,211.458 448.963,219.354 449.856,227.251 450.749,235.148 451.642,243.044 452.534,250.941 453.427,258.838 454.32,266.785 455.213,274.681 456.105,282.578 456.999,290.475 457.891,298.371 458.784,306.268 459.677,314.165 460.569,322.061 461.462,329.958 462.355,337.854 463.248,345.751 464.141,353.648 465.034,361.544 465.926,369.491 466.819,377.388 467.712,69.2676 468.605,77.1646 469.498,85.061 470.39,92.958 471.283,100.854 472.176,108.751 473.069,116.648 473.961,124.544 474.854,132.441 475.747,140.338 476.64,148.234 477.533,156.131 478.426,164.078 479.318,171.975 480.211,179.871 481.104,187.768 481.997,195.665 482.89,203.561 483.782,211.458 484.675,219.354 485.568,227.251 486.461,235.148 487.354,243.044 488.247,250.941 489.139,258.838 490.032,266.785 490.925,274.681 491.817,282.578 492.71,290.475 493.603,298.371 494.496,306.268 495.389,314.165 496.282,322.061 497.174,329.958 498.067,337.854 498.96,345.751 499.853,353.648 500.746,361.544 501.638,369.491 502.531,377.388 503.424,69.2676 504.317,77.1646 505.209,85.061 506.103,92.958 506.995,100.854 507.888,108.751 508.781,116.648 509.673,124.544 510.566,132.441 511.459,140.338 512.352,148.234 513.245,156.131 514.138,164.078 515.03,171.975 515.923,179.871 516.816,187.768 517.709,195.665 518.602,203.561 519.494,211.458 520.387,219.354" stroke="#ecb01f" stroke-linejoin="round" stroke-width="0.5" stroke-linecap="butt"/>
   <polyline fill="none" points="74.8799,384.48 74.8799,334.183 75.7729,334.535 76.6655,335.541 77.5586,337.1 78.4512,339.212 79.3438,341.828 80.2368,344.846 81.1294,348.266 82.0225,351.938 82.915,355.811 83.8081,359.734 84.7007,363.657 85.5938,367.479 86.4863,371.101 87.3794,374.42 88.272,377.388 89.165,379.903 90.0576,381.915 90.9502,383.374 91.8433,384.229 92.7358,384.48 93.6289,384.128 94.5215,383.122 95.4146,381.563 96.3071,379.45 97.2002,376.835 98.0928,373.817 98.9854,370.397 99.8784,366.725 100.771,362.852 101.664,358.929 102.557,355.006 103.45,351.183 104.342,347.562 105.235,344.242 106.128,341.275 107.021,338.76 107.914,336.748 108.807,335.29 109.699,334.435 110.592,334.183 111.485,334.535 112.377,335.541 113.271,337.1 114.163,339.212 115.056,341.828 115.949,344.846 116.842,348.266 117.734,351.938 118.627,355.811 119.52,359.734 120.413,363.657 121.306,367.479 122.198,371.101 123.091,374.42 123.984,377.388 124.877,379.903 125.77,381.915 126.663,383.374 127.555,384.229 128.448,384.48 129.341,384.128 130.233,383.122 131.126,381.563 132.019,379.45 132.912,376.835 133.805,373.817 134.698,370.397 135.59,366.725 136.483,362.852 137.376,358.929 138.269,355.006 139.162,351.183 140.054,347.562 140.947,344.242 141.84,341.275 142.733,338.76 143.625,336.748 144.519,335.29 145.411,334.435 146.304,334.183 147.197,334.535 148.09,335.541 148.982,337.1 149.875,339.212 150.768,341.828 151.661,344.846 152.554,348.266 153.446,351.938 154.339,355.811 155.232,359.734 156.125,363.657 157.018,367.479 157.91,371.101 158.803,374.42 159.696,377.388 160.589,379.903 161.481,381.915 162.375,383.374 163.267,384.229 164.16,384.48 165.053,384.128 165.946,383.122 166.838,381.563 167.731,379.45 168.624,376.835 169.517,373.817 170.41,370.397 171.302,366.725 172.195,362.852 173.088,358.929 173.981,355.006 174.874,351.183 175.767,347.562 176.659,344.242 177.552,341.275 178.445,338.76 179.337,336.748 180.23,335.29 181.123,334.435 182.016,334.183 182.909,334.535 183.802,335.541 184.694,337.1 185.587,339.212 186.48,341.828 187.373,344.896 188.266,348.266 189.158,351.938 190.051,355.811 190.944,359.734 191.837,363.657 192.729,367.479 193.623,371.101 194.515,374.42 195.408,377.388 196.301,379.903 197.193,381.915 198.086,383.374 198.979,384.229 199.872,384.48 200.765,384.128 201.658,383.122 202.55,381.563 203.443,379.45 204.336,376.835 205.229,373.767 206.122,370.397 207.014,366.725 207.907,362.852 208.8,358.929 209.693,355.006 210.585,351.183 211.479,347.562 212.371,344.242 213.264,341.275 214.157,338.76 215.05,336.748 215.942,335.29 216.835,334.435 217.728,334.183 218.621,334.535 219.514,335.541 220.406,337.1 221.299,339.212 222.192,341.828 223.085,344.896 223.978,348.266 224.871,351.938 225.763,355.811 226.656,359.734 227.549,363.657 228.441,367.479 229.334,371.101 230.227,374.42 231.12,377.388 232.013,379.903 232.906,381.915 233.798,383.374 234.691,384.229 235.584,384.48 236.477,384.128 237.37,383.122 238.262,381.563 239.155,379.45 240.048,376.835 240.941,373.767 241.833,370.397 242.727,366.725 243.619,362.852 244.512,358.929 245.405,355.006 246.297,351.183 247.19,347.562 248.083,344.242 248.976,341.275 249.869,338.76 250.762,336.748 251.654,335.29 252.547,334.435 253.44,334.183 254.333,334.535 255.226,335.541 256.118,337.1 257.011,339.212 257.904,341.828 258.797,344.896 259.689,348.266 260.583,351.938 261.475,355.811 262.368,359.734 263.261,363.657 264.154,367.479 265.046,371.101 265.939,374.42 266.832,377.388 267.725,379.903 268.618,381.915 269.51,383.374 270.403,384.229 271.296,384.48 272.189,384.128 273.082,383.122 273.975,381.563 274.867,379.45 275.76,376.835 276.653,373.767 277.545,370.397 278.438,366.725 279.331,362.852 280.224,358.929 281.117,355.006 282.01,351.183 282.902,347.562 283.795,344.242 284.688,341.275 285.581,338.76 286.474,336.748 287.366,335.29 288.259,334.435 289.152,334.183 290.045,334.535 290.938,335.541 291.831,337.1 292.723,339.212 293.616,341.828 294.509,344.896 295.401,348.266 296.294,351.938 297.187,355.811 298.08,359.734 298.973,363.657 299.866,367.479 300.758,371.101 301.651,374.42 302.544,377.388 303.437,379.903 304.33,381.915 305.222,383.374 306.115,384.229 307.008,384.48 307.901,384.128 308.793,383.122 309.687,381.563 310.579,379.45 311.472,376.835 312.365,373.767 313.258,370.397 314.15,366.725 315.043,362.852 315.936,358.929 316.829,355.006 317.722,351.183 318.614,347.562 319.507,344.242 320.4,341.275 321.293,338.76 322.186,336.748 323.079,335.29 323.971,334.435 324.864,334.183 325.757,334.535 326.649,335.541 327.542,337.1 328.435,339.212 329.328,341.828 330.221,344.896 331.114,348.266 332.006,351.938 332.899,355.811 333.792,359.734 334.685,363.657 335.578,367.479 336.47,371.101 337.363,374.42 338.256,377.388 339.149,379.903 340.042,381.915 340.935,383.374 341.827,384.229 342.72,384.48 343.613,384.128 344.505,383.122 345.398,381.563 346.291,379.45 347.184,376.835 348.077,373.767 348.97,370.397 349.862,366.725 350.755,362.852 351.648,358.929 352.541,355.006 353.434,351.183 354.326,347.562 355.219,344.242 356.112,341.275 357.005,338.76 357.897,336.748 358.791,335.29 359.683,334.435 360.576,334.183 361.469,334.535 362.362,335.541 363.254,337.1 364.147,339.212 365.04,341.828 365.933,344.896 366.826,348.266 367.718,351.938 368.611,355.811 369.504,359.734 370.397,363.657 371.29,367.479 372.182,371.101 373.075,374.42 373.968,377.388 374.861,379.903 375.753,381.915 376.646,383.374 377.539,384.229 378.432,384.48 379.325,384.128 380.218,383.122 381.11,381.563 382.003,379.45 382.896,376.835 383.789,373.767 384.682,370.397 385.574,366.725 386.467,362.852 387.36,358.929 388.253,355.006 389.146,351.183 390.039,347.562 390.931,344.242 391.824,341.275 392.717,338.76 393.609,336.748 394.502,335.29 395.395,334.435 396.288,334.183 397.181,334.535 398.074,335.541 398.966,337.1 399.859,339.212 400.752,341.828 401.645,344.896 402.538,348.266 403.43,351.938 404.323,355.811 405.216,359.734 406.109,363.657 407.001,367.479 407.895,371.101 408.787,374.42 409.68,377.388 410.573,379.903 411.465,381.915 412.358,383.374 413.251,384.229 414.144,384.48 415.037,384.128 415.93,383.122 416.822,381.563 417.715,379.45 418.608,376.835 419.501,373.767 420.394,370.397 421.286,366.725 422.179,362.852 423.072,358.929 423.965,355.006 424.857,351.183 425.75,347.562 426.643,344.242 427.536,341.275 428.429,338.76 429.322,336.748 430.214,335.29 431.107,334.435 432,334.183 432.893,334.535 433.786,335.541 434.678,337.1 435.571,339.212 436.464,341.828 437.357,344.896 438.25,348.266 439.143,351.938 440.035,355.811 440.928,359.734 441.821,363.657 442.713,367.479 443.606,371.101 444.499,374.42 445.392,377.388 446.285,379.903 447.178,381.915 448.07,383.374 448.963,384.229 449.856,384.48 450.749,384.128 451.642,383.122 452.534,381.563 453.427,379.45 454.32,376.835 455.213,373.767 456.105,370.397 456.999,366.725 457.891,362.852 458.784,358.929 459.677,355.006 460.569,351.183 461.462,347.562 462.355,344.242 463.248,341.275 464.141,338.76 465.034,336.748 465.926,335.29 466.819,334.435 467.712,334.183 468.605,334.535 469.498,335.541 470.39,337.1 471.283,339.212 472.176,341.828 473.069,344.896 473.961,348.266 474.854,351.938 475.747,355.811 476.64,359.734 477.533,363.657 478.426,367.479 479.318,371.101 480.211,374.42 481.104,377.388 481.997,379.903 482.89,381.915 483.782,383.374 484.675,384.229 485.568,384.48 486.461,384.128 487.354,383.122 488.247,381.563 489.139,379.45 490.032,376.835 490.925,373.767 491.817,370.397 492.71,366.725 493.603,362.852 494.496,358.929 495.389,355.006 496.282,351.183 497.174,347.562 498.067,344.242 498.96,341.275 499.853,338.76 500.746,336.748 501.638,335.29 502.531,334.435 503.424,334.183 504.317,334.535 505.209,335.541 506.103,337.1 506.995,339.212 507.888,341.828 508.781,344.896 509.673,348.266 510.566,351.938 511.459,355.811 512.352,359.734 513.245,363.657 514.138,367.479 515.03,371.101 515.923,374.42 516.816,377.388 517.709,379.903 518.602,381.915 519.494,383.374 520.387,384.229" stroke="#7d2e8d" stroke-linejoin="round" stroke-width="0.5" stroke-linecap="butt"/>
   <polyline fill="none" points="74.8799,384.48 74.8799,371.554 75.7729,367.982 76.6655,364.16 77.5586,360.237 78.4512,356.313 79.3438,352.441 80.2368,348.719 81.1294,345.298 82.0225,342.23 82.915,339.564 83.8081,337.352 84.7007,335.692 85.5938,334.636 86.4863,334.183 87.3794,334.384 88.272,335.139 89.165,336.497 90.0576,338.458 90.9502,340.923 91.8433,343.79 92.7358,347.109 93.6289,350.68 94.5215,354.503 95.4146,358.426 96.3071,362.349 97.2002,366.222 98.0928,369.944 98.9854,373.364 99.8784,376.433 100.771,379.098 101.664,381.312 102.557,382.971 103.45,384.027 104.342,384.48 105.235,384.279 106.128,383.524 107.021,382.167 107.914,380.205 108.807,377.74 109.699,374.873 110.592,371.554 111.485,367.982 112.377,364.16 113.271,360.237 114.163,356.313 115.056,352.441 115.949,348.719 116.842,345.298 117.734,342.23 118.627,339.564 119.52,337.352 120.413,335.692 121.306,334.636 122.198,334.183 123.091,334.384 123.984,335.139 124.877,336.497 125.77,338.458 126.663,340.923 127.555,343.79 128.448,347.109 129.341,350.68 130.233,354.503 131.126,358.426 132.019,362.349 132.912,366.222 133.805,369.944 134.698,373.364 135.59,376.433 136.483,379.098 137.376,381.312 138.269,382.971 139.162,384.027 140.054,384.48 140.947,384.279 141.84,383.524 142.733,382.167 143.625,380.205 144.519,377.74 145.411,374.873 146.304,371.554 147.197,367.982 148.09,364.16 148.982,360.237 149.875,356.313 150.768,352.441 151.661,348.719 152.554,345.298 153.446,342.23 154.339,339.564 155.232,337.352 156.125,335.692 157.018,334.636 157.91,334.183 158.803,334.384 159.696,335.139 160.589,336.497 161.481,338.458 162.375,340.923 163.267,343.79 164.16,347.109 165.053,350.68 165.946,354.503 166.838,358.426 167.731,362.349 168.624,366.222 169.517,369.944 170.41,373.364 171.302,376.433 172.195,379.098 173.088,381.312 173.981,382.971 174.874,384.027 175.767,384.48 176.659,384.279 177.552,383.524 178.445,382.167 179.337,380.205 180.23,377.74 181.123,374.873 182.016,371.554 182.909,367.982 183.802,364.16 184.694,360.237 185.587,356.313 186.48,352.441 187.373,348.719 188.266,345.298 189.158,342.23 190.051,339.564 190.944,337.352 191.837,335.692 192.729,334.636 193.623,334.183 194.515,334.384 195.408,335.139 196.301,336.497 197.193,338.458 198.086,340.923 198.979,343.79 199.872,347.109 200.765,350.68 201.658,354.503 202.55,358.426 203.443,362.349 204.336,366.222 205.229,369.944 206.122,373.364 207.014,376.433 207.907,379.098 208.8,381.312 209.693,382.971 210.585,384.027 211.479,384.48 212.371,384.279 213.264,383.524 214.157,382.167 215.05,380.205 215.942,377.74 216.835,374.873 217.728,371.554 218.621,367.982 219.514,364.16 220.406,360.237 221.299,356.313 222.192,352.441 223.085,348.719 223.978,345.298 224.871,342.23 225.763,339.564 226.656,337.352 227.549,335.692 228.441,334.636 229.334,334.183 230.227,334.384 231.12,335.139 232.013,336.497 232.906,338.458 233.798,340.923 234.691,343.79 235.584,347.109 236.477,350.68 237.37,354.503 238.262,358.426 239.155,362.349 240.048,366.222 240.941,369.944 241.833,373.364 242.727,376.433 243.619,379.098 244.512,381.312 245.405,382.971 246.297,384.027 247.19,384.48 248.083,384.279 248.976,383.524 249.869,382.167 250.762,380.205 251.654,377.74 252.547,374.873 253.44,371.554 254.333,367.982 255.226,364.16 256.118,360.237 257.011,356.313 257.904,352.441 258.797,348.719 259.689,345.298 260.583,342.23 261.475,339.564 262.368,337.352 263.261,335.692 264.154,334.636 265.046,334.183 265.939,334.384 266.832,335.139 267.725,336.497 268.618,338.458 269.51,340.923 270.403,343.79 271.296,347.109 272.189,350.68 273.082,354.503 273.975,358.426 274.867,362.349 275.76,366.222 276.653,369.944 277.545,373.364 278.438,376.433 279.331,379.098 280.224,381.312 281.117,382.971 282.01,384.027 282.902,384.48 283.795,384.279 284.688,383.524 285.581,382.167 286.474,380.205 287.366,377.74 288.259,374.873 289.152,371.554 290.045,367.982 290.938,364.16 291.831,360.237 292.723,356.313 293.616,352.441 294.509,348.719 295.401,345.298 296.294,342.23 297.187,339.564 298.08,337.352 298.973,335.692 299.866,334.636 300.758,334.183 301.651,334.384 302.544,335.139 303.437,336.497 304.33,338.458 305.222,340.923 306.115,343.79 307.008,347.109 307.901,350.68 308.793,354.503 309.687,358.426 310.579,362.349 311.472,366.222 312.365,369.944 313.258,373.364 314.15,376.433 315.043,379.098 315.936,381.312 316.829,382.971 317.722,384.027 318.614,384.48 319.507,384.279 320.4,383.524 321.293,382.167 322.186,380.205 323.079,377.74 323.971,374.873 324.864,371.554 325.757,367.982 326.649,364.16 327.542,360.237 328.435,356.313 329.328,352.441 330.221,348.719 331.114,345.298 332.006,342.23 332.899,339.564 333.792,337.352 334.685,335.692 335.578,334.636 336.47,334.183 337.363,334.384 338.256,335.139 339.149,336.497 340.042,338.458 340.935,340.923 341.827,343.79 342.72,347.109 343.613,350.68 344.505,354.503 345.398,358.426 346.291,362.349 347.184,366.222 348.077,369.944 348.97,373.364 349.862,376.433 350.755,379.098 351.648,381.312 352.541,382.971 353.434,384.027 354.326,384.48 355.219,384.279 356.112,383.524 357.005,382.167 357.897,380.205 358.791,377.74 359.683,374.873 360.576,371.554 361.469,367.982 362.362,364.16 363.254,360.237 364.147,356.313 365.04,352.441 365.933,348.719 366.826,345.298 367.718,342.23 368.611,339.564 369.504,337.352 370.397,335.692 371.29,334.636 372.182,334.183 373.075,334.384 373.968,335.139 374.861,336.497 375.753,338.458 376.646,340.923 377.539,343.79 378.432,347.109 379.325,350.68 380.218,354.503 381.11,358.426 382.003,362.349 382.896,366.222 383.789,369.944 384.682,373.364 385.574,376.433 386.467,379.098 387.36,381.312 388.253,382.971 389.146,384.027 390.039,384.48 390.931,384.279 391.824,383.524 392.717,382.167 393.609,380.205 394.502,377.74 395.395,374.873 396.288,371.554 397.181,367.982 398.074,364.16 398.966,360.237 399.859,356.313 400.752,352.441 401.645,348.719 402.538,345.298 403.43,342.23 404.323,339.564 405.216,337.352 406.109,335.692 407.001,334.636 407.895,334.183 408.787,334.384 409.68,335.139 410.573,336.497 411.465,338.458 412.358,340.923 413.251,343.79 414.144,347.109 415.037,350.68 415.93,354.503 416.822,358.426 417.715,362.349 418.608,366.222 419.501,369.944 420.394,373.364 421.286,376.433 422.179,379.098 423.072,381.312 423.965,382.971 424.857,384.027 425.75,384.48 426.643,384.279 427.536,383.524 428.429,382.167 429.322,380.205 430.214,377.74 431.107,374.873 432,371.554 432.893,367.982 433.786,364.16 434.678,360.237 435.571,356.313 436.464,352.441 437.357,348.719 438.25,345.298 439.143,342.23 440.035,339.564 440.928,337.352 441.821,335.692 442.713,334.636 443.606,334.183 444.499,334.384 445.392,335.139 446.285,336.497 447.178,338.458 448.07,340.923 448.963,343.79 449.856,347.109 450.749,350.68 451.642,354.503 452.534,358.426 453.427,362.349 454.32,366.222 455.213,369.944 456.105,373.364 456.999,376.433 457.891,379.098 458.784,381.312 459.677,382.971 460.569,384.027 461.462,384.48 462.355,384.279 463.248,383.524 464.141,382.167 465.034,380.205 465.926,377.74 466.819,374.873 467.712,371.554 468.605,367.982 469.498,364.16 470.39,360.237 471.283,356.313 472.176,352.441 473.069,348.719 473.961,345.298 474.854,342.23 475.747,339.564 476.64,337.352 477.533,335.692 478.426,334.636 479.318,334.183 480.211,334.384 481.104,335.139 481.997,336.497 482.89,338.458 483.782,340.923 484.675,343.79 485.568,347.109 486.461,350.68 487.354,354.503 488.247,358.426 489.139,362.349 490.032,366.222 490.925,369.944 491.817,373.364 492.71,376.433 493.603,379.098 494.496,381.312 495.389,382.971 496.282,384.027 497.174,384.48 498.067,384.279 498.96,383.524 499.853,382.167 500.746,380.205 501.638,377.74 502.531,374.873 503.424,371.554 504.317,367.982 505.209,364.16 506.103,360.237 506.995,356.313 507.888,352.441 508.781,348.719 509.673,345.298 510.566,342.23 511.459,339.564 512.352,337.352 513.245,335.692 514.138,334.636 515.03,334.183 515.923,334.384 516.816,335.139 517.709,336.497 518.602,338.458 519.494,340.923 520.387,343.79" stroke="#76ab2f" stroke-linejoin="round" stroke-width="0.5" stroke-linecap="butt"/>
   <polyline fill="none" points="74.8799,384.48 74.8799,372.258 75.7729,375.477 76.6655,378.293 77.5586,380.657 78.4512,382.468 79.3438,383.726 80.2368,384.379 81.1294,384.43 82.0225,383.826 82.915,382.669 83.8081,380.909 84.7007,378.646 85.5938,375.879 86.4863,372.71 87.3794,369.189 88.272,365.468 89.165,361.544 90.0576,357.621 90.9502,353.698 91.8433,349.976 92.7358,346.405 93.6289,343.186 94.5215,340.37 95.4146,338.005 96.3071,336.195 97.2002,334.938 98.0928,334.284 98.9854,334.233 99.8784,334.837 100.771,335.994 101.664,337.754 102.557,340.018 103.45,342.784 104.342,345.952 105.235,349.473 106.128,353.195 107.021,357.118 107.914,361.042 108.807,364.965 109.699,368.687 110.592,372.258 111.485,375.477 112.377,378.293 113.271,380.657 114.163,382.468 115.056,383.726 115.949,384.379 116.842,384.43 117.734,383.826 118.627,382.669 119.52,380.909 120.413,378.646 121.306,375.879 122.198,372.71 123.091,369.189 123.984,365.468 124.877,361.544 125.77,357.621 126.663,353.698 127.555,349.976 128.448,346.405 129.341,343.186 130.233,340.37 131.126,338.005 132.019,336.195 132.912,334.938 133.805,334.284 134.698,334.233 135.59,334.837 136.483,335.994 137.376,337.754 138.269,340.018 139.162,342.784 140.054,345.952 140.947,349.473 141.84,353.195 142.733,357.118 143.625,361.042 144.519,364.965 145.411,368.687 146.304,372.258 147.197,375.477 148.09,378.293 148.982,380.657 149.875,382.468 150.768,383.726 151.661,384.379 152.554,384.43 153.446,383.826 154.339,382.669 155.232,380.909 156.125,378.646 157.018,375.879 157.91,372.71 158.803,369.189 159.696,365.468 160.589,361.544 161.481,357.621 162.375,353.698 163.267,349.976 164.16,346.405 165.053,343.186 165.946,340.37 166.838,338.005 167.731,336.195 168.624,334.938 169.517,334.284 170.41,334.233 171.302,334.837 172.195,335.994 173.088,337.754 173.981,340.018 174.874,342.784 175.767,345.952 176.659,349.473 177.552,353.195 178.445,357.118 179.337,361.042 180.23,364.965 181.123,368.687 182.016,372.258 182.909,375.477 183.802,378.293 184.694,380.657 185.587,382.468 186.48,383.726 187.373,384.379 188.266,384.43 189.158,383.826 190.051,382.669 190.944,380.909 191.837,378.646 192.729,375.879 193.623,372.71 194.515,369.189 195.408,365.468 196.301,361.544 197.193,357.621 198.086,353.698 198.979,349.976 199.872,346.405 200.765,343.186 201.658,340.37 202.55,338.005 203.443,336.195 204.336,334.938 205.229,334.284 206.122,334.233 207.014,334.837 207.907,335.994 208.8,337.754 209.693,340.018 210.585,342.784 211.479,345.952 212.371,349.473 213.264,353.195 214.157,357.118 215.05,361.042 215.942,364.965 216.835,368.687 217.728,372.258 218.621,375.477 219.514,378.293 220.406,380.657 221.299,382.468 222.192,383.726 223.085,384.379 223.978,384.43 224.871,383.826 225.763,382.669 226.656,380.909 227.549,378.646 228.441,375.879 229.334,372.71 230.227,369.189 231.12,365.468 232.013,361.544 232.906,357.621 233.798,353.698 234.691,349.976 235.584,346.405 236.477,343.186 237.37,340.37 238.262,338.005 239.155,336.195 240.048,334.938 240.941,334.284 241.833,334.233 242.727,334.837 243.619,335.994 244.512,337.754 245.405,340.018 246.297,342.784 247.19,345.952 248.083,349.473 248.976,353.195 249.869,357.118 250.762,361.042 251.654,364.965 252.547,368.687 253.44,372.258 254.333,375.477 255.226,378.293 256.118,380.657 257.011,382.468 257.904,383.726 258.797,384.379 259.689,384.43 260.583,383.826 261.475,382.669 262.368,380.909 263.261,378.646 264.154,375.879 265.046,372.71 265.939,369.189 266.832,365.468 267.725,361.544 268.618,357.621 269.51,353.698 270.403,349.976 271.296,346.405 272.189,343.186 273.082,340.37 273.975,338.005 274.867,336.195 275.76,334.938 276.653,334.284 277.545,334.233 278.438,334.837 279.331,335.994 280.224,337.754 281.117,340.018 282.01,342.784 282.902,345.952 283.795,349.473 284.688,353.195 285.581,357.118 286.474,361.042 287.366,364.965 288.259,368.737 289.152,372.258 290.045,375.477 290.938,378.293 291.831,380.657 292.723,382.468 293.616,383.726 294.509,384.379 295.401,384.43 296.294,383.826 297.187,382.669 298.08,380.909 298.973,378.646 299.866,375.879 300.758,372.71 301.651,369.189 302.544,365.468 303.437,361.544 304.33,357.621 305.222,353.698 306.115,349.926 307.008,346.405 307.901,343.186 308.793,340.37 309.687,338.005 310.579,336.195 311.472,334.938 312.365,334.284 313.258,334.233 314.15,334.837 315.043,335.994 315.936,337.754 316.829,340.018 317.722,342.784 318.614,345.952 319.507,349.473 320.4,353.195 321.293,357.118 322.186,361.042 323.079,364.965 323.971,368.737 324.864,372.258 325.757,375.477 326.649,378.293 327.542,380.657 328.435,382.468 329.328,383.726 330.221,384.379 331.114,384.43 332.006,383.826 332.899,382.669 333.792,380.909 334.685,378.646 335.578,375.879 336.47,372.71 337.363,369.189 338.256,365.468 339.149,361.544 340.042,357.621 340.935,353.698 341.827,349.926 342.72,346.405 343.613,343.186 344.505,340.37 345.398,338.005 346.291,336.195 347.184,334.938 348.077,334.284 348.97,334.233 349.862,334.837 350.755,335.994 351.648,337.754 352.541,340.018 353.434,342.784 354.326,345.952 355.219,349.473 356.112,353.195 357.005,357.118 357.897,361.042 358.791,364.965 359.683,368.737 360.576,372.258 361.469,375.477 362.362,378.293 363.254,380.657 364.147,382.468 365.04,383.726 365.933,384.379 366.826,384.43 367.718,383.826 368.611,382.669 369.504,380.909 370.397,378.646 371.29,375.879 372.182,372.71 373.075,369.189 373.968,365.468 374.861,361.544 375.753,357.621 376.646,353.698 377.539,349.926 378.432,346.405 379.325,343.186 380.218,340.37 381.11,338.005 382.003,336.195 382.896,334.938 383.789,334.284 384.682,334.233 385.574,334.837 386.467,335.994 387.36,337.754 388.253,340.018 389.146,342.784 390.039,345.952 390.931,349.473 391.824,353.195 392.717,357.118 393.609,361.042 394.502,364.965 395.395,368.737 396.288,372.258 397.181,375.477 398.074,378.293 398.966,380.657 399.859,382.468 400.752,383.726 401.645,384.379 402.538,384.43 403.43,383.826 404.323,382.669 405.216,380.909 406.109,378.646 407.001,375.879 407.895,372.71 408.787,369.189 409.68,365.468 410.573,361.544 411.465,357.621 412.358,353.698 413.251,349.926 414.144,346.405 415.037,343.186 415.93,340.37 416.822,338.005 417.715,336.195 418.608,334.938 419.501,334.284 420.394,334.233 421.286,334.837 422.179,335.994 423.072,337.754 423.965,340.018 424.857,342.784 425.75,345.952 426.643,349.473 427.536,353.195 428.429,357.118 429.322,361.042 430.214,364.965 431.107,368.737 432,372.258 432.893,375.477 433.786,378.293 434.678,380.657 435.571,382.468 436.464,383.726 437.357,384.379 438.25,384.43 439.143,383.826 440.035,382.669 440.928,380.909 441.821,378.646 442.713,375.879 443.606,372.71 444.499,369.189 445.392,365.468 446.285,361.544 447.178,357.621 448.07,353.698 448.963,349.926 449.856,346.405 450.749,343.186 451.642,340.37 452.534,338.005 453.427,336.195 454.32,334.938 455.213,334.284 456.105,334.233 456.999,334.837 457.891,335.994 458.784,337.754 459.677,340.018 460.569,342.784 461.462,345.952 462.355,349.473 463.248,353.195 464.141,357.118 465.034,361.042 465.926,364.965 466.819,368.737 467.712,372.258 468.605,375.477 469.498,378.293 470.39,380.657 471.283,382.468 472.176,383.726 473.069,384.379 473.961,384.43 474.854,383.826 475.747,382.669 476.64,380.909 477.533,378.646 478.426,375.879 479.318,372.71 480.211,369.189 481.104,365.468 481.997,361.544 482.89,357.621 483.782,353.698 484.675,349.926 485.568,346.405 486.461,343.186 487.354,340.37 488.247,338.005 489.139,336.195 490.032,334.938 490.925,334.284 491.817,334.233 492.71,334.837 493.603,335.994 494.496,337.754 495.389,340.018 496.282,342.784 497.174,345.952 498.067,349.473 498.96,353.195 499.853,357.118 500.746,361.042 501.638,364.965 502.531,368.737 503.424,372.258 504.317,375.477 505.209,378.293 506.103,380.657 506.995,382.468 507.888,383.726 508.781,384.379 509.673,384.43 510.566,383.826 511.459,382.669 512.352,380.909 513.245,378.646 514.138,375.879 515.03,372.71 515.923,369.189 516.816,365.468 517.709,361.544 518.602,357.621 519.494,353.698 520.387,349.926" stroke="#4cbded" stroke-linejoin="round" stroke-width="0.5" stroke-linecap="butt"/>
  </g>
  <clipPath id="cp00576432">
   <polygon points="0,432 576,432 576,0 0,0"/>
  </clipPath>
  <g clip-path="url(#cp00576432)">
   <polygon fill="#ffffff" shape-rendering="crispEdges" points="487.204,137.981 517.242,137.981 517.242,43.3667 487.204,43.3667"/>
   <polyline fill="none" points="487.204,137.981 517.242,137.981" stroke="#262626" stroke-linejoin="miter" stroke-width="0.5" stroke-dasharray="16,0" stroke-linecap="square"/>
   <polyline fill="none" points="487.204,43.3667 517.242,43.3667" stroke="#262626" stroke-linejoin="miter" stroke-width="0.5" stroke-dasharray="16,0" stroke-linecap="square"/>
   <polyline fill="none" points="487.204,137.981 487.204,43.3667" stroke="#262626" stroke-linejoin="miter" stroke-width="0.5" stroke-dasharray="16,0" stroke-linecap="square"/>
   <polyline fill="none" points="517.242,137.981 517.242,43.3667" stroke="#262626" stroke-linejoin="miter" stroke-width="0.5" stroke-dasharray="16,0" stroke-linecap="square"/>
   <text font-weight="normal" font-size="9" transform="translate(497.13,56.2511) rotate(-0,-0,-5)" font-family="FreeSans" xml:space="preserve" font-style="normal">
    <tspan fill="rgb(0,0,0)" y="-2" x="0 6 11 14 19 22 24 30 35 40 42 ">Rotor Angle</tspan>
   </text>
   <text font-weight="normal" font-size="9" transform="translate(497.13,72.0202) rotate(-0,-0,-5)" font-family="FreeSans" xml:space="preserve" font-style="normal">
    <tspan fill="rgb(0,0,0)" y="-2" x="0 6 11 16 20 25 27 33 38 43 45 ">Phase Angle</tspan>
   </text>
   <text font-weight="normal" font-size="9" transform="translate(497.13,87.7892) rotate(-0,-0,-5)" font-family="FreeSans" xml:space="preserve" font-style="normal">
    <tspan fill="rgb(0,0,0)" y="-2" x="0 6 14 22 24 30 35 40 42 ">PWM Angle</tspan>
   </text>
   <text font-weight="normal" font-size="9" transform="translate(497.13,103.558) rotate(-0,-0,-5)" font-family="FreeSans" xml:space="preserve" font-style="normal">
    <tspan fill="rgb(0,0,0)" y="-2" x="0 5 12 17 19 ">pwn 0</tspan>
   </text>
   <text font-weight="normal" font-size="9" transform="translate(497.13,119.327) rotate(-0,-0,-5)" font-family="FreeSans" xml:space="preserve" font-style="normal">
    <tspan fill="rgb(0,0,0)" y="-2" x="0 5 12 17 19 ">pwn 1</tspan>
   </text>
   <text font-weight="normal" font-size="9" transform="translate(497.13,135.096) rotate(-0,-0,-5)" font-family="FreeSans" xml:space="preserve" font-style="normal">
    <tspan fill="rgb(0,0,0)" y="-2" x="0 5 12 17 19 ">pwn 2</tspan>
   </text>
   <polyline fill="none" points="488.381,51.251 495.952,51.251" stroke="#0071bc" stroke-linejoin="round" stroke-width="0.5" stroke-linecap="butt"/>
   <polyline fill="none" points="488.381,67.02 495.952,67.02" stroke="#d85218" stroke-linejoin="round" stroke-width="0.5" stroke-linecap="butt"/>
   <polyline fill="none" points="488.381,82.7891 495.952,82.7891" stroke="#ecb01f" stroke-linejoin="round" stroke-width="0.5" stroke-linecap="butt"/>
   <polyline fill="none" points="488.381,98.5581 495.952,98.5581" stroke="#7d2e8d" stroke-linejoin="round" stroke-width="0.5" stroke-linecap="butt"/>
   <polyline fill="none" points="488.381,114.327 495.952,114.327" stroke="#76ab2f" stroke-linejoin="round" stroke-width="0.5" stroke-linecap="butt"/>
   <polyline fill="none" points="488.381,130.096 495.952,130.096" stroke="#4cbded" stroke-linejoin="round" stroke-width="0.5" stroke-linecap="butt"/>
  </g>
 </g>
</svg>
